<svg id="Layer_1" enable-background="new 0 0 512.001 512.001" height="512" viewBox="0 0 512.001 512.001" width="512" xmlns="http://www.w3.org/2000/svg"><g><g clip-rule="evenodd" fill-rule="evenodd"><path d="m436.007 242.256c0-88.14-72.912-160.255-162.028-160.255s-162.028 72.114-162.028 160.254c0 17.238-16.661 43.013-26.604 56.867-20.535 28.612-6.733 48.099 36.729 48.099v53.401c0 24.019 19.869 43.67 44.153 43.67 57.186 0 62.504 3.947 66.027 57.709h143.395c-4.677-71.369-2.23-113.831 36.576-176.43 15.072-24.313 23.78-52.857 23.78-83.315z" fill="#ffd0c7"/><g fill="#ffc144"><path d="m231.812 136.293-15.98 66.945 26.778 3.023-12.525 59.171 67.57-81.415-28.073-6.478 16.65-41.246z"/><path d="m332.27 10-24.444 102.403 40.961 4.624-19.16 90.511 90.512-116.277-42.944-9.91 38.319-71.351z"/></g></g><g><path d="m402.84 129.764 25.189-32.36c2.098-2.694 2.676-6.272 1.532-9.49-1.143-3.217-3.848-5.629-7.174-6.397l-30.189-6.967 32.125-59.819c1.665-3.099 1.578-6.845-.228-9.864s-5.064-4.867-8.581-4.867h-83.244c-4.629 0-8.652 3.176-9.727 7.678l-16.091 67.406c-10.675-2.039-21.558-3.083-32.474-3.083-45.751 0-88.888 17.744-121.465 49.964-32.607 32.249-50.564 74.969-50.564 120.29 0 10.383-9.244 29.462-24.728 51.037-14.405 20.07-12.34 34.197-8.072 42.515 4.5 8.768 15.635 19.046 42.925 21.063v43.753c0 29.594 24.293 53.67 54.153 53.67 26.102 0 40.475.968 46.599 6.26 5.996 5.182 7.886 18.244 9.45 42.103.345 5.258 4.709 9.346 9.979 9.346h143.395c2.766 0 5.408-1.146 7.299-3.164s2.86-4.73 2.68-7.49c-1.267-19.337-1.794-33.585-1.709-46.199.037-5.522-4.41-10.03-9.933-10.067-5.54-.055-10.03 4.41-10.067 9.933-.071 10.65.271 22.343 1.1 36.987h-123.455c-1.742-21.759-4.681-37.092-15.661-46.581-12.01-10.378-30.557-11.127-59.676-11.127-18.832 0-34.153-15.104-34.153-33.67v-13.399c6.447 0 15.326 3.076 25 8.661 1.575.909 3.294 1.341 4.991 1.341 3.456 0 6.818-1.794 8.67-5.002 2.761-4.783 1.122-10.899-3.661-13.661-13.034-7.524-24.81-11.34-35-11.34v-20.001c0-5.523-4.477-10-10-10-18.609 0-31.742-3.943-35.131-10.547-2.401-4.679-.022-12.597 6.527-21.722 12.992-18.103 28.479-43.675 28.479-62.698 0-82.85 68.2-150.254 152.029-150.254 9.351 0 18.676.856 27.827 2.547l-3.708 15.532c-.665 2.786-.104 5.723 1.542 8.067s4.217 3.871 7.063 4.192l30.021 3.389-16.88 79.739c-.965 4.557 1.345 9.176 5.568 11.14 1.354.629 2.79.932 4.211.932 3.01 0 5.951-1.361 7.896-3.858l52.808-67.841c23.085 27.087 35.68 60.927 35.68 96.416 0 27.546-7.704 54.534-22.279 78.046-9.389 15.144-16.741 29.188-22.478 42.937-2.127 5.097.28 10.953 5.378 13.08 1.259.525 2.563.773 3.847.773 3.914 0 7.631-2.313 9.232-6.151 5.322-12.754 12.197-25.872 21.019-40.101 16.539-26.68 25.281-57.312 25.281-88.584 0-41.66-15.27-81.293-43.167-112.493zm-45.943-18.587c-1.649-2.287-4.188-3.771-6.988-4.087l-29.733-3.356 19.988-83.734h58.628l-30.406 56.62c-1.475 2.746-1.585 6.021-.299 8.86 1.287 2.838 3.823 4.915 6.859 5.616l27.678 6.387-54.224 69.659 10.17-48.043c.584-2.759-.023-5.635-1.673-7.922z"/><path d="m154.582 255.147c-5.523 0-9.997 4.477-9.997 10s4.481 10 10.004 10 10-4.477 10-10-4.477-10-10-10z"/><path d="m225.729 274.434c1.393.674 2.879.999 4.352.999 2.904 0 5.75-1.266 7.699-3.614l67.571-81.415c2.216-2.67 2.89-6.298 1.779-9.586s-3.845-5.765-7.226-6.545l-16.667-3.846 12.268-30.391c1.245-3.082.876-6.581-.982-9.336-1.859-2.755-4.966-4.407-8.29-4.407h-54.42c-4.628 0-8.652 3.176-9.727 7.678l-15.98 66.945c-.665 2.786-.104 5.723 1.542 8.067s4.217 3.871 7.063 4.192l15.836 1.788-10.245 48.398c-.953 4.5 1.287 9.069 5.427 11.073zm2.454-79.865 11.524-48.276h31.705l-11.103 27.502c-1.095 2.713-.947 5.769.404 8.363s3.771 4.467 6.62 5.125l12.268 2.831-31.345 37.768 4.138-19.549c.584-2.758-.023-5.634-1.673-7.921s-4.187-3.771-6.989-4.087z"/><path d="m377.679 400.239h-.007c-5.522 0-9.996 4.477-9.996 10s4.48 10 10.003 10 10-4.477 10-10-4.478-10-10-10z"/></g></g></svg>